<?xml version="1.0" standalone="no"?>
<!DOCTYPE svg PUBLIC "-//W3C//DTD SVG 20010904//EN"
 "http://www.w3.org/TR/2001/REC-SVG-20010904/DTD/svg10.dtd">
<svg version="1.0" xmlns="http://www.w3.org/2000/svg"
 width="4000.000000pt" height="4000.000000pt" viewBox="0 0 4000.000000 4000.000000"
 preserveAspectRatio="xMidYMid meet">

<g transform="translate(0.000000,4000.000000) scale(0.100000,-0.100000)"
fill="#000000" stroke="none">
<path d="M19127 36391 c-46 -10 -53 -16 -38 -35 26 -32 206 -79 954 -252 186
-43 334 -80 329 -82 -5 -1 -76 8 -158 22 -573 97 -993 144 -1354 152 -205 5
-239 9 -385 39 -434 91 -710 119 -1185 120 -450 0 -657 -17 -1006 -86 -287
-56 -563 -147 -552 -181 7 -20 153 -21 423 -4 132 9 328 21 435 26 229 12 774
12 810 0 18 -6 3 -8 -51 -9 -101 -1 -364 -27 -585 -56 -886 -120 -1820 -426
-2624 -862 -665 -360 -1206 -767 -1448 -1088 -60 -80 -110 -171 -100 -181 10
-10 38 10 173 126 245 210 512 394 890 615 670 393 1396 711 2117 931 83 25
152 44 154 41 2 -2 -22 -11 -54 -21 -274 -86 -857 -309 -1145 -440 -664 -301
-1158 -615 -1577 -1000 -185 -171 -313 -256 -688 -460 -293 -159 -414 -233
-556 -340 -693 -520 -1148 -1340 -1236 -2225 -13 -133 -13 -420 0 -552 48
-484 198 -823 451 -1023 146 -115 328 -186 521 -202 l84 -6 -33 -127 c-112
-430 -157 -773 -157 -1211 0 -440 34 -710 190 -1540 123 -652 134 -726 144
-1010 22 -572 49 -688 190 -831 75 -76 140 -110 260 -139 182 -43 265 -78 362
-153 19 -15 20 -17 3 -11 -11 3 -67 9 -125 11 -186 9 -315 -40 -440 -166 -132
-133 -197 -304 -220 -577 -12 -145 -12 -159 21 -729 42 -743 86 -1343 115
-1570 62 -497 214 -976 461 -1457 l45 -87 -183 -226 c-100 -124 -191 -233
-203 -240 -11 -8 -39 -15 -63 -15 -37 0 -53 8 -141 79 -54 43 -102 86 -106 96
-3 9 -6 34 -6 55 0 36 19 62 226 320 124 155 222 285 218 290 -88 81 -278 240
-284 238 -4 -2 -101 -119 -215 -260 -264 -328 -250 -322 -415 -193 -97 76
-126 118 -116 168 5 26 228 314 424 550 11 13 -11 36 -164 171 -97 86 -180
156 -184 156 -4 0 -95 -109 -203 -243 -107 -134 -207 -248 -222 -255 -48 -22
-80 -14 -146 36 -35 26 -85 68 -111 93 -41 39 -48 51 -48 85 0 48 -10 33 222
321 103 129 188 238 188 242 0 9 -264 243 -279 249 -5 1 -92 -102 -195 -230
-103 -128 -197 -238 -209 -245 -12 -7 -38 -12 -58 -13 -31 0 -52 13 -138 81
-109 87 -133 126 -113 179 5 14 96 133 202 265 128 160 189 243 184 251 -16
22 -342 304 -350 303 -5 0 -90 -101 -188 -225 -230 -287 -230 -287 -393 -154
-96 79 -112 99 -113 146 0 37 7 46 225 318 83 102 150 190 150 195 0 9 -274
251 -284 251 -3 -1 -75 -88 -160 -195 -192 -242 -200 -250 -255 -250 -37 0
-52 8 -134 73 -110 88 -122 104 -122 158 0 44 -12 28 352 480 6 8 -46 60 -169
168 -97 86 -180 156 -183 156 -4 0 -73 -83 -154 -185 -172 -215 -193 -235
-246 -235 -34 0 -53 11 -139 80 -109 88 -132 124 -112 180 5 16 83 120 172
230 88 111 160 203 158 204 -2 2 -69 58 -147 124 l-144 121 -27 -32 c-15 -18
-82 -100 -149 -184 -67 -84 -131 -157 -141 -163 -26 -13 -77 -13 -104 2 -39
20 -182 139 -194 162 -7 11 -12 38 -13 58 0 33 16 57 142 215 79 98 148 185
155 193 10 14 -16 39 -168 166 -99 82 -183 149 -188 149 -5 0 -66 -71 -136
-158 -178 -223 -192 -227 -348 -97 -102 84 -122 117 -107 170 5 18 67 103 137
191 70 88 129 163 130 167 2 7 -269 234 -287 240 -5 2 -61 -62 -124 -141 -165
-206 -171 -207 -334 -78 -88 69 -112 101 -112 149 0 33 17 57 153 226 l96 118
-48 42 c-27 22 -86 74 -131 114 -95 86 -128 103 -177 92 -79 -18 -135 -75
-336 -342 -163 -216 -207 -304 -207 -418 0 -121 47 -199 261 -430 414 -447
1820 -1926 2899 -3050 370 -386 3326 -3459 3867 -4021 l73 -75 -111 -100
c-250 -222 -473 -495 -631 -771 l-64 -112 -265 -202 c-145 -111 -637 -482
-1094 -824 -1729 -1293 -1659 -1244 -1794 -1285 -84 -27 -194 -26 -291 1 -93
25 -194 72 -381 176 -265 148 -417 214 -639 277 -950 269 -1878 -36 -2377
-782 -165 -246 -233 -460 -314 -987 -37 -243 -42 -389 -21 -688 15 -220 27
-286 83 -439 55 -151 92 -217 207 -367 221 -288 410 -445 717 -596 316 -156
602 -220 980 -219 241 0 344 13 582 74 515 133 861 342 1126 682 191 244 312
519 363 823 8 50 19 215 24 370 13 380 40 563 117 808 81 259 142 323 481 501
242 128 2145 1114 2163 1121 14 5 15 -36 11 -387 -4 -397 4 -641 34 -1018 15
-187 15 -213 1 -295 -8 -49 -14 -91 -13 -92 1 -1 26 57 56 130 258 639 582
1207 919 1612 178 213 420 444 621 592 155 114 160 113 50 -7 -308 -337 -527
-632 -963 -1301 -103 -157 -187 -294 -187 -305 0 -28 36 -81 60 -89 47 -15 80
25 215 255 116 199 201 328 393 604 l146 208 17 -148 c37 -331 101 -591 163
-669 24 -30 24 -30 45 -11 12 11 26 43 33 77 6 32 13 57 14 56 2 -1 12 -79 23
-172 12 -94 32 -240 45 -325 16 -103 30 -260 41 -465 44 -858 165 -1686 281
-1923 21 -43 30 -53 48 -50 24 3 44 52 53 131 7 60 16 51 37 -38 63 -255 158
-465 205 -450 13 4 25 -33 68 -208 113 -462 261 -822 457 -1112 72 -107 190
-229 230 -239 76 -19 79 73 12 340 -25 100 -46 185 -46 190 0 4 26 -34 58 -86
32 -52 100 -160 151 -239 l92 -143 25 -132 c151 -793 509 -1641 930 -2202 143
-191 291 -334 345 -334 28 0 42 37 35 90 -12 89 -69 248 -273 754 -112 279
-203 510 -201 511 2 2 210 -311 463 -695 429 -650 463 -705 497 -802 88 -242
275 -563 463 -794 49 -60 172 -190 274 -289 325 -314 434 -427 533 -546 150
-180 184 -200 221 -129 29 54 18 198 -22 319 -17 52 -30 95 -29 97 2 1 44 -23
95 -54 88 -55 94 -61 170 -174 131 -196 261 -356 408 -504 127 -129 148 -146
225 -182 131 -62 181 -76 258 -69 74 6 199 54 282 107 117 75 388 387 563 648
76 113 82 119 170 174 51 31 93 55 95 54 1 -2 -12 -45 -29 -97 -40 -121 -51
-265 -22 -319 37 -71 71 -51 221 129 99 119 208 232 533 546 102 99 225 229
274 289 188 231 375 552 463 794 34 97 68 152 497 802 253 384 461 697 463
695 2 -2 -84 -221 -191 -486 -204 -505 -271 -690 -282 -776 -8 -56 5 -93 34
-93 54 0 202 143 345 334 421 561 779 1410 930 2202 l25 132 92 143 c51 79
119 187 151 239 32 52 58 89 58 84 0 -6 -16 -71 -35 -145 -80 -307 -80 -403 1
-383 40 10 158 133 230 239 196 290 344 650 457 1112 43 175 55 212 68 208 47
-15 142 195 205 450 20 82 34 104 35 55 0 -19 8 -60 17 -90 47 -149 116 -10
196 391 83 413 149 1012 176 1599 7 148 20 292 35 390 14 85 34 231 46 325 11
93 21 171 23 172 1 1 8 -24 14 -56 7 -34 21 -66 33 -77 21 -19 21 -19 45 11
45 57 96 226 133 450 23 138 51 391 51 465 0 27 3 50 8 50 19 -1 60 -52 204
-255 232 -329 317 -458 459 -697 116 -194 171 -268 200 -268 26 0 53 26 73 70
l23 49 164 -262 c148 -235 184 -301 245 -442 16 -38 17 -39 23 -15 l7 25 13
-23 c7 -13 15 -22 17 -19 2 2 -24 73 -59 158 -395 956 -865 1645 -1429 2093
-42 33 -75 62 -74 63 1 1 39 -9 84 -23 148 -45 373 -214 603 -452 324 -333
571 -756 739 -1262 32 -96 71 -227 87 -290 l28 -115 7 65 c27 238 40 500 45
902 l5 447 212 -106 c116 -58 588 -292 1048 -519 461 -227 868 -433 906 -458
93 -62 177 -152 212 -228 109 -241 170 -550 185 -928 14 -370 59 -579 174
-825 91 -193 187 -329 346 -494 264 -273 542 -417 1050 -545 77 -20 165 -43
195 -51 115 -32 230 -40 402 -27 205 14 290 35 628 153 767 266 867 275 1645
154 408 -64 565 -78 845 -79 561 -1 1055 77 1371 217 143 64 167 136 98 298
-32 74 -100 199 -135 246 -34 45 -117 82 -205 92 -142 16 -495 -14 -764 -65
-381 -71 -414 -76 -560 -71 -221 6 -331 54 -485 207 -194 192 -273 371 -409
922 -39 158 -90 338 -112 400 -22 62 -47 145 -54 183 -65 346 -211 640 -447
902 -525 583 -1325 802 -2159 593 -265 -67 -475 -157 -771 -332 -163 -96 -293
-156 -394 -181 -115 -28 -200 -17 -319 42 -55 27 -424 284 -1067 742 -1784
1272 -1624 1155 -1638 1202 -6 23 -32 92 -57 152 -175 431 -511 852 -985 1233
-112 89 -118 96 -118 131 1 27 10 46 38 78 l37 42 105 -30 c316 -90 368 -34
146 158 -36 31 -66 60 -66 64 0 4 201 225 448 490 1049 1134 3520 3811 4027
4364 1461 1593 2095 2305 2111 2371 18 72 -24 234 -60 234 -76 0 -1477 -1069
-4621 -3526 -830 -649 -1515 -1183 -1522 -1187 -7 -5 -1 22 14 60 150 394 222
710 268 1173 22 231 89 1258 115 1767 17 352 -13 574 -106 762 -82 167 -221
278 -398 318 l-77 18 202 135 c279 187 334 245 373 396 8 32 29 185 45 339 68
625 111 1203 143 1925 17 380 17 1501 0 1690 -74 829 -226 1356 -615 2125
l-106 210 50 -55 c139 -155 294 -392 408 -625 186 -379 299 -727 451 -1391
133 -585 176 -739 205 -739 56 0 1 719 -91 1185 -131 660 -361 1200 -682 1600
-235 293 -523 527 -832 678 -118 57 -336 189 -328 198 7 6 317 -79 407 -112
190 -70 426 -201 556 -307 195 -160 298 -272 451 -487 117 -166 148 -200 166
-182 33 33 -4 219 -73 371 -75 165 -268 399 -434 526 -221 170 -492 279 -760
307 l-112 11 80 58 c238 170 460 372 507 461 23 45 24 49 8 64 -15 16 -23 16
-73 5 -127 -29 -486 -242 -720 -429 -55 -44 -101 -79 -102 -78 -2 1 34 67 78
147 103 185 277 538 322 654 97 249 64 302 -89 143 -94 -99 -196 -238 -302
-415 l-78 -130 -12 151 c-31 401 -157 755 -448 1262 -103 181 -245 403 -301
472 -20 25 -43 42 -55 42 -19 0 -20 -4 -15 -59 7 -86 90 -320 217 -616 153
-355 220 -525 273 -691 45 -140 101 -382 95 -412 -2 -9 -25 42 -51 111 -202
534 -632 1314 -977 1772 -115 152 -246 298 -346 387 -39 35 -123 109 -186 165
-63 56 -144 127 -181 157 -340 279 -805 530 -1203 651 -283 85 -609 125 -588
71 8 -20 61 -47 304 -151 214 -92 584 -269 623 -297 23 -17 -406 64 -483 91
-30 11 -131 51 -225 89 -657 268 -1431 465 -2130 542 -203 22 -546 34 -608 21z
m-3811 -1202 c-129 -81 -221 -188 -297 -344 -141 -289 -129 -587 36 -920 131
-264 333 -482 636 -684 404 -272 908 -439 1602 -531 135 -18 237 -25 182 -13
-670 149 -983 308 -1616 823 -287 232 -486 444 -565 601 -48 97 -42 96 19 -4
103 -171 208 -277 507 -512 361 -283 587 -433 855 -565 274 -136 541 -219 900
-280 221 -38 461 -63 940 -100 215 -17 471 -39 570 -51 684 -77 1199 -248
1564 -519 45 -34 113 -77 149 -97 37 -20 128 -76 202 -126 805 -536 1294
-1130 1460 -1771 49 -190 63 -316 57 -531 -5 -196 -19 -283 -67 -438 -28 -89
-34 -83 -9 8 58 212 64 524 14 765 -122 585 -494 1108 -1135 1594 -601 456
-1124 700 -1791 835 -305 62 -647 102 -1249 146 -1024 75 -1472 149 -1947 321
-631 228 -1096 598 -1324 1054 -168 336 -182 669 -40 965 55 115 117 201 199
276 56 51 168 129 186 129 6 0 -12 -14 -38 -31z m511 -990 c331 -447 879 -788
1547 -963 386 -102 728 -148 1371 -186 432 -25 561 -35 765 -61 560 -69 1001
-242 1315 -515 36 -31 24 -25 -72 38 -155 102 -373 197 -581 254 -313 85 -581
115 -1197 134 -416 13 -626 25 -855 50 -847 95 -1501 364 -1964 810 -128 123
-230 243 -308 361 -54 82 -147 248 -111 199 10 -13 50 -68 90 -121z m3697
-459 c61 -12 164 -39 230 -61 118 -39 336 -140 386 -179 l25 -20 -45 5 c-396
42 -536 77 -805 198 -205 92 -203 89 -40 83 85 -2 183 -13 249 -26z m4190
-210 c226 -126 415 -269 607 -460 429 -427 695 -954 795 -1577 10 -60 17 -185
20 -323 3 -234 0 -238 -31 -40 -20 130 -83 391 -125 525 -232 727 -693 1391
-1289 1855 -56 44 -99 80 -94 80 5 0 57 -27 117 -60z m-4694 -65 c444 -44 776
-132 1082 -286 99 -49 242 -137 203 -124 -296 97 -538 151 -1015 225 -662 103
-1132 188 -1150 207 -11 12 731 -7 880 -22z m3857 -130 c208 -86 565 -264 732
-364 758 -458 1264 -1080 1441 -1772 31 -120 23 -115 -24 16 -150 425 -363
751 -726 1116 -365 366 -749 632 -1390 963 -113 58 -202 106 -198 106 3 0 78
-29 165 -65z m1126 -973 c328 -247 584 -508 754 -769 171 -261 291 -583 307
-823 5 -69 5 -71 -5 -30 -47 198 -108 365 -200 540 -185 354 -463 680 -949
1114 -85 77 -159 144 -165 149 -17 18 156 -103 258 -181z m-2538 -247 c647
-514 1079 -1140 1251 -1814 68 -264 78 -354 79 -666 0 -247 -3 -294 -23 -400
-24 -131 -46 -214 -37 -140 31 250 31 599 1 785 -93 573 -297 1046 -663 1536
-189 252 -459 538 -716 758 -70 60 -127 111 -127 113 0 7 121 -82 235 -172z
m2482 -79 c239 -142 414 -278 588 -457 181 -187 301 -365 384 -574 68 -171
110 -361 112 -508 l1 -62 38 147 c105 402 241 785 379 1068 28 58 49 94 46 80
-3 -14 -46 -182 -95 -375 -48 -192 -116 -474 -150 -625 -109 -491 -349 -1540
-395 -1730 l-45 -185 5 130 c7 153 37 460 65 665 29 208 90 543 102 557 12 15
4 147 -19 283 -54 332 -230 681 -518 1027 -89 107 -358 383 -527 541 -48 45
-85 82 -83 82 3 0 53 -29 112 -64z m-3841 -92 c645 -259 1060 -494 1417 -802
594 -513 895 -1262 762 -1894 -9 -40 -18 -74 -22 -77 -3 -3 -3 5 1 19 20 78
29 278 18 402 -44 491 -279 966 -676 1364 -322 322 -661 548 -1306 871 -190
95 -342 173 -339 173 3 0 68 -25 145 -56z m3759 -344 c387 -254 697 -601 894
-1001 97 -195 132 -308 145 -469 6 -62 5 -61 -23 48 -110 424 -596 1060 -1108
1449 -62 47 -113 88 -113 90 0 8 104 -50 205 -117z m-12626 -290 c-26 -162
-35 -442 -20 -580 22 -195 63 -335 144 -494 90 -177 230 -337 369 -423 32 -20
56 -38 54 -40 -10 -10 -174 85 -242 139 -322 255 -460 699 -375 1199 17 96 80
334 87 327 1 -2 -6 -60 -17 -128z m-235 -29 c-42 -145 -55 -225 -61 -376 -15
-386 90 -675 337 -925 146 -148 279 -230 462 -284 l83 -25 -73 0 c-214 -2
-435 95 -615 268 -148 142 -239 300 -289 498 -19 74 -23 115 -23 263 0 192 14
270 75 427 25 67 114 233 124 233 2 0 -7 -36 -20 -79z m14757 -51 c137 -37
302 -135 423 -253 240 -235 382 -566 430 -1004 19 -173 29 -352 17 -333 -5 8
-41 119 -81 245 -94 300 -158 470 -235 632 -160 335 -371 571 -622 697 -40 20
-73 38 -73 40 0 5 90 -10 141 -24z m-1811 -99 c272 -193 548 -456 703 -674
146 -204 230 -459 199 -607 l-10 -45 -1 50 c-5 185 -106 393 -312 640 -87 104
-487 511 -644 655 -95 87 -78 82 65 -19z m-5065 -36 c830 -79 1413 -369 1771
-881 73 -103 166 -295 199 -409 31 -106 55 -258 54 -335 -1 -65 -9 -46 -29 65
-52 287 -247 609 -505 837 -368 323 -850 506 -1575 597 -315 40 -528 52 -975
59 -392 5 -432 7 -370 18 114 20 429 54 590 64 202 12 643 4 840 -15z m6192
-27 c-3 -8 -6 -5 -6 6 -1 11 2 17 5 13 3 -3 4 -12 1 -19z m685 -84 c138 -92
262 -271 293 -424 7 -31 0 -25 -53 49 -79 111 -259 317 -346 398 l-70 64 54
-21 c30 -12 85 -42 122 -66z m-1913 -91 c116 -38 233 -94 332 -158 110 -71
463 -475 529 -605 54 -106 129 -357 118 -391 -2 -6 -24 26 -48 72 -230 427
-624 838 -1046 1090 -67 40 -68 41 -29 34 22 -4 87 -22 144 -42z m1734 -109
c158 -82 334 -259 490 -494 236 -355 312 -730 213 -1044 l-22 -71 -7 123 c-17
304 -113 572 -355 994 -121 210 -219 354 -299 438 -36 39 -62 70 -59 70 4 0
21 -7 39 -16z m-7613 -308 c400 -54 763 -193 1100 -419 133 -89 283 -238 328
-323 18 -34 32 -65 32 -68 0 -4 -19 17 -43 46 -72 88 -177 161 -377 262 -540
271 -1141 431 -1739 462 -72 4 -130 9 -128 11 8 7 177 33 278 42 131 12 412 5
549 -13z m7591 -74 c99 -64 182 -170 219 -282 25 -72 40 -230 22 -230 -15 0
-93 91 -154 179 -54 78 -97 170 -133 289 -26 82 -22 87 46 44z m-11511 -137
c107 -85 297 -278 505 -510 210 -236 407 -434 525 -529 396 -318 906 -528
1400 -577 249 -24 257 -26 104 -28 -558 -5 -1114 190 -1549 542 -132 107 -338
326 -571 607 -243 293 -344 404 -461 511 -43 40 -85 79 -93 87 -22 22 53 -33
140 -103z m-687 15 c343 -58 697 -250 1048 -566 42 -38 211 -200 376 -360 165
-160 347 -328 404 -374 351 -282 680 -420 1011 -424 150 -1 110 -15 -67 -22
-397 -18 -811 164 -1255 551 -52 46 -176 158 -275 251 -447 416 -614 545 -880
679 -228 116 -426 166 -650 166 -151 0 -271 -25 -398 -84 -261 -121 -467 -368
-493 -592 -10 -83 -27 -81 -19 1 20 201 103 363 262 514 247 235 565 324 936
260z m1942 -155 c178 -117 374 -198 567 -237 155 -31 414 -30 743 2 278 27
634 33 780 12 256 -37 530 -113 719 -201 49 -23 90 -40 92 -38 2 1 -52 39
-119 84 -347 233 -619 323 -1201 399 -120 16 -213 30 -207 32 20 7 415 -18
538 -33 266 -33 460 -87 658 -184 199 -97 364 -212 675 -471 383 -318 436
-358 620 -472 52 -32 91 -58 86 -58 -4 0 -60 27 -124 60 -129 65 -284 164
-428 270 -298 221 -729 386 -1189 456 -160 24 -496 29 -740 10 -619 -49 -869
-24 -1163 116 -162 77 -418 271 -511 388 -34 42 -33 42 45 -20 43 -35 115 -87
159 -115z m10185 -392 c73 -80 147 -222 185 -357 94 -331 62 -813 -77 -1181
-31 -82 -54 -121 -44 -75 9 41 26 421 26 583 0 209 -17 509 -35 633 -29 195
-82 346 -158 453 -52 73 -53 76 -5 43 25 -17 73 -62 108 -99z m-6804 17 c182
-249 444 -485 727 -654 65 -39 99 -64 82 -60 -65 14 -234 86 -315 134 l-85 50
105 -102 c106 -101 105 -105 -5 -40 -247 147 -495 409 -609 642 l-27 55 32
-35 c131 -142 180 -191 165 -167 -51 83 -81 138 -102 186 -37 84 -36 83 32 -9z
m5629 -55 c103 -34 180 -82 255 -156 93 -94 162 -225 185 -353 6 -38 5 -37
-68 50 -111 134 -240 237 -395 317 -94 49 -267 111 -340 123 -23 4 -45 10 -47
15 -3 4 23 15 57 23 96 24 252 16 353 -19z m-3200 -475 c551 -66 1019 -164
1835 -385 822 -223 1261 -313 1470 -302 132 6 196 32 275 111 34 34 69 72 78
86 l17 25 42 -47 c149 -163 218 -400 218 -750 0 -485 -91 -1141 -230 -1663
-104 -388 -120 -457 -130 -552 -13 -125 -8 -179 70 -743 121 -873 222 -1751
310 -2700 20 -212 46 -421 71 -570 46 -270 60 -477 39 -557 -16 -59 -36 -99
-158 -323 -402 -737 -826 -1402 -1290 -2023 -88 -117 -130 -166 -141 -163 -37
11 -206 37 -331 50 -571 62 -1224 -5 -1763 -180 -229 -75 -437 -171 -543 -251
-30 -23 -35 -23 -260 -22 l-229 0 65 18 c119 32 197 78 291 171 73 73 94 101
132 180 55 114 77 209 77 327 0 203 -79 391 -227 545 -80 82 -159 136 -345
234 -198 105 -265 152 -356 249 -44 47 -84 85 -90 85 -33 0 -13 -126 35 -208
46 -80 186 -210 338 -312 171 -116 276 -217 326 -315 62 -119 74 -167 73 -290
0 -95 -4 -119 -27 -178 -31 -80 -96 -176 -143 -212 l-33 -25 11 31 c14 41 5
101 -22 139 -35 49 -94 74 -175 75 -108 0 -180 -39 -287 -157 -183 -202 -248
-261 -343 -310 -49 -25 -116 -54 -148 -64 -72 -22 -110 -14 -252 56 -113 56
-184 114 -284 234 -103 123 -159 174 -230 209 -129 63 -271 34 -322 -65 -28
-55 -22 -116 19 -173 l30 -43 -36 15 c-216 90 -341 342 -291 585 6 29 31 95
56 147 59 123 146 211 338 341 253 172 385 332 385 466 0 34 -4 54 -11 54 -7
0 -47 -38 -91 -85 -91 -97 -158 -144 -357 -249 -194 -103 -265 -152 -348 -240
-86 -90 -146 -188 -186 -304 -24 -71 -31 -108 -35 -203 -6 -147 13 -236 75
-362 61 -122 180 -244 293 -299 185 -91 425 -99 657 -23 l79 26 61 -41 c34
-22 88 -51 119 -64 l58 -24 -63 -7 c-158 -18 -823 1 -1193 35 -92 8 -99 10
-147 48 -148 117 -463 245 -815 332 -586 144 -1232 167 -1774 63 -76 -14 -149
-28 -164 -30 -24 -5 -37 10 -160 174 -465 619 -889 1281 -1286 2006 l-82 148
4 142 c4 153 13 207 97 597 45 211 54 272 85 600 91 976 194 1870 308 2689 77
547 80 570 73 695 -6 124 -19 190 -83 416 -162 577 -245 1080 -274 1660 -23
447 30 705 184 905 53 68 131 137 190 167 39 20 41 20 53 2 81 -119 150 -198
223 -257 172 -138 398 -227 695 -273 134 -21 452 -23 600 -5 380 47 694 139
1455 423 481 180 727 264 928 318 l123 33 77 -42 c115 -63 704 -353 802 -394
152 -64 248 -80 350 -56 24 5 329 152 676 325 414 206 637 312 648 308 9 -4
16 -3 15 2 -3 18 2 20 29 17 15 -2 104 -12 197 -23z m1612 -192 c-3 -8 -6 -5
-6 6 -1 11 2 17 5 13 3 -3 4 -12 1 -19z m3466 -458 c236 -357 357 -796 344
-1250 -11 -368 -65 -568 -288 -1062 -115 -254 -182 -429 -239 -623 -51 -174
-104 -435 -127 -622 -10 -79 -21 -143 -24 -143 -17 0 -42 231 -47 432 -9 438
39 683 246 1233 153 410 206 654 219 1010 14 412 -52 765 -223 1200 -13 35 67
-66 139 -175z m-13634 -901 c18 -205 31 -403 46 -709 24 -491 84 -746 227
-967 25 -37 99 -142 166 -232 67 -90 145 -201 172 -247 174 -287 281 -651 279
-949 l-1 -100 -37 110 c-129 375 -293 647 -586 970 -177 196 -266 317 -330
448 -158 326 -175 666 -69 1389 19 131 48 311 64 400 17 90 30 168 31 173 4
36 21 -95 38 -286z m-6262 -2454 c32 -24 72 -57 90 -72 l32 -28 -105 -130
c-58 -71 -112 -142 -120 -158 -39 -73 -34 -181 11 -249 34 -51 225 -202 274
-216 62 -19 130 -14 187 12 49 23 80 55 229 243 8 9 20 3 54 -26 l44 -38 -100
-124 c-117 -145 -133 -173 -140 -245 -7 -62 14 -127 55 -176 45 -54 220 -186
259 -197 80 -23 159 -10 220 36 18 13 78 80 134 148 89 110 103 123 118 112
47 -33 140 -113 140 -120 1 -4 -55 -78 -124 -163 -99 -123 -128 -166 -140
-209 -35 -119 3 -198 155 -321 119 -96 178 -121 258 -109 93 14 119 35 263
215 46 57 91 113 100 124 16 19 17 19 62 -16 l46 -35 -136 -169 c-75 -93 -144
-187 -154 -209 -45 -98 -12 -217 82 -297 175 -149 239 -178 339 -157 77 16
119 53 255 222 l127 157 26 -19 c15 -11 51 -42 81 -69 l55 -48 -147 -182 c-80
-100 -154 -196 -164 -214 -26 -49 -24 -161 4 -213 36 -68 224 -226 291 -245
84 -23 181 -3 236 48 22 21 225 265 282 341 10 13 18 10 53 -18 22 -18 41 -37
41 -43 0 -5 -66 -91 -147 -191 -174 -214 -193 -247 -193 -332 0 -96 31 -148
146 -240 140 -112 155 -120 244 -120 114 0 136 16 304 225 78 96 146 181 152
189 9 12 25 2 93 -54 71 -60 79 -70 68 -84 -86 -101 -312 -388 -328 -416 -14
-24 -23 -59 -26 -103 -4 -59 -1 -74 24 -122 22 -44 49 -72 138 -143 157 -126
230 -142 348 -79 38 20 76 62 184 196 75 94 148 185 163 202 l26 31 43 -39 43
-38 -180 -225 c-205 -254 -223 -289 -203 -386 19 -89 42 -117 187 -232 87 -70
131 -89 204 -88 111 0 136 19 312 240 78 97 154 190 169 208 l28 32 80 -66
c50 -42 77 -71 72 -77 -4 -6 -91 -115 -193 -241 -101 -127 -190 -245 -196
-264 -26 -75 -10 -177 37 -238 26 -32 195 -169 235 -190 17 -9 60 -18 96 -20
57 -4 72 -1 120 24 48 25 76 54 227 242 94 118 178 221 186 229 13 13 20 10
56 -18 23 -19 41 -36 41 -39 0 -4 -89 -117 -198 -252 -109 -136 -205 -262
-213 -280 -7 -19 -14 -61 -14 -94 0 -93 31 -143 146 -238 130 -107 158 -121
244 -121 122 0 140 15 375 312 74 94 137 171 140 171 3 1 20 -28 39 -63 30
-56 32 -66 20 -83 -8 -10 -79 -99 -158 -198 -79 -98 -150 -194 -157 -212 -23
-54 -18 -142 12 -201 20 -41 48 -71 125 -133 117 -94 165 -118 237 -119 85 0
108 16 227 156 60 71 112 133 116 138 4 4 22 -3 41 -17 18 -13 48 -32 66 -41
26 -13 32 -23 32 -48 0 -26 -15 -47 -82 -117 -46 -47 -146 -155 -222 -240
-153 -169 -284 -283 -398 -349 -121 -69 -179 -69 -272 0 -30 22 -263 257 -518
521 -2751 2857 -5409 5552 -5911 5993 l-58 51 31 59 c38 71 254 374 319 446
49 54 95 88 123 88 9 0 42 -20 75 -45z m26423 -303 c13 -50 12 -152 -3 -179
-15 -27 -147 -167 -1512 -1613 -1215 -1287 -3860 -4103 -4649 -4950 -274 -294
-505 -541 -512 -549 -21 -22 -62 4 -74 47 l-9 35 197 206 c108 113 296 307
417 431 527 537 2099 2199 3225 3410 1378 1480 2609 2842 2838 3137 31 39 60
69 64 67 4 -3 12 -21 18 -42z m-26953 -291 c83 -132 1356 -1492 2788 -2976
1050 -1089 2623 -2691 3445 -3509 l672 -669 -41 -41 -42 -41 -77 80 c-43 44
-278 287 -522 540 -895 926 -1640 1691 -3925 4035 -2351 2412 -2252 2309
-2289 2372 -34 59 -50 128 -42 183 8 49 15 55 33 26z m26422 -131 c-68 -71
-302 -313 -520 -537 -665 -686 -1479 -1543 -2630 -2768 -326 -347 -1681 -1802
-2119 -2275 -595 -644 -634 -680 -718 -680 -50 0 -119 40 -218 127 -49 43
-144 123 -212 177 -68 54 -134 116 -148 138 -14 21 -37 43 -52 49 -58 22 -55
54 6 69 100 24 211 110 306 240 59 79 235 374 346 577 44 83 93 162 108 175
15 14 747 603 1627 1309 2341 1877 3667 2953 4205 3413 74 63 137 115 139 115
2 1 -52 -57 -120 -129z m-19516 -325 c79 -21 131 -49 189 -103 105 -98 138
-165 178 -358 30 -147 40 -283 50 -688 9 -342 16 -456 36 -565 5 -23 3 -32 -4
-27 -46 28 -32 -936 33 -2314 8 -173 15 -324 14 -335 0 -11 -31 68 -68 175
-90 257 -129 355 -166 410 -59 89 -85 55 -85 -111 0 -145 22 -296 75 -504 65
-258 169 -530 244 -639 33 -47 54 -136 32 -136 -18 0 -102 114 -160 218 -67
122 -283 562 -366 747 -222 496 -339 893 -394 1335 -23 188 -32 299 -101 1255
-71 992 -71 993 -64 1031 12 63 106 105 185 84 65 -18 115 -72 169 -184 71
-146 83 -201 155 -682 28 -192 52 -292 96 -404 50 -127 142 -241 171 -212 9 9
7 45 -10 154 -12 79 -27 222 -32 318 -20 350 -31 484 -46 569 -55 318 -198
552 -381 622 -71 26 -180 29 -237 5 l-39 -16 7 32 c9 48 61 154 96 198 88 112
270 165 423 125z m13735 0 c77 -23 169 -91 215 -158 34 -50 91 -186 82 -195
-2 -2 -13 2 -25 8 -37 20 -128 30 -183 20 -238 -46 -405 -302 -461 -708 -8
-59 -20 -208 -26 -332 -12 -251 -22 -365 -47 -523 -13 -83 -14 -110 -5 -119
29 -29 120 85 172 214 45 115 75 254 115 533 50 351 89 494 169 619 81 128
191 157 295 79 l34 -26 -7 -131 c-4 -72 -20 -302 -36 -511 -16 -209 -45 -603
-65 -875 -36 -515 -55 -726 -81 -895 -52 -354 -156 -700 -335 -1120 -71 -169
-383 -799 -453 -916 -54 -92 -129 -176 -185 -207 l-41 -23 0 35 c0 30 6 39 43
65 84 58 128 122 189 275 137 345 221 706 222 963 1 121 -2 145 -16 159 -14
15 -19 15 -33 4 -42 -35 -116 -222 -295 -748 -46 -133 -84 -241 -85 -240 -1 2
8 226 21 498 35 759 53 1242 64 1739 l11 455 34 115 c92 312 153 649 175 976
36 540 65 676 180 848 59 88 84 112 130 125 54 16 171 14 228 -3z m-13598
-4877 c24 -40 74 -119 112 -176 l69 -103 -92 -115 c-111 -139 -151 -164 -212
-133 -50 26 -196 153 -207 180 -7 16 -10 43 -6 61 7 34 272 371 286 363 4 -3
27 -37 50 -77z m3540 -668 c377 -26 721 -133 1053 -330 111 -65 268 -182 348
-259 l64 -62 -95 51 c-436 234 -834 360 -1345 426 -186 25 -620 24 -810 0
-120 -15 -302 -45 -370 -62 -35 -8 77 48 165 83 242 96 452 137 825 161 11 1
85 -3 165 -8z m6975 -175 c148 -17 353 -53 375 -66 9 -5 -21 -9 -75 -9 -49 0
-164 -5 -255 -10 -718 -45 -1570 -190 -2200 -374 -46 -14 -86 -23 -88 -22 -11
12 332 181 503 249 365 144 664 210 1135 251 93 8 480 -4 605 -19z m-10289
-51 c-24 -96 -83 -406 -112 -595 l-27 -175 -47 -31 -46 -31 -105 90 c-57 50
-148 131 -203 181 l-98 91 39 11 c146 43 362 219 543 442 36 44 66 79 68 78 2
-2 -4 -29 -12 -61z m12848 -102 c117 -110 170 -148 236 -171 l49 -17 -132
-122 -131 -122 -67 131 c-62 119 -70 144 -99 281 -18 83 -35 158 -38 167 -8
22 63 -36 182 -147z m-5849 2 c28 -8 88 -21 135 -28 l85 -13 -90 -6 c-49 -4
-144 -9 -210 -13 l-120 -6 49 27 c27 14 59 33 70 41 25 17 20 17 81 -2z
m-4192 -86 c59 -6 107 -11 107 -12 0 0 -98 -1 -218 -2 -350 -2 -599 -43 -967
-161 -531 -170 -1003 -436 -1888 -1062 -298 -211 -331 -233 -312 -214 21 21
346 283 500 404 788 614 1432 930 2106 1034 220 34 429 38 672 13z m7654 -8
c883 -72 1707 -480 2487 -1230 54 -52 135 -135 180 -185 l81 -90 -115 105
c-903 825 -1771 1257 -2714 1351 -159 16 -595 6 -735 -16 -57 -9 -105 -14
-108 -12 -11 12 328 66 502 80 94 8 303 6 422 -3z m-6346 -498 c-19 -36 -229
-239 -337 -326 -206 -166 -424 -300 -734 -450 -226 -109 -369 -170 -845 -356
-463 -180 -715 -286 -919 -384 -364 -175 -668 -376 -899 -594 l-81 -77 49 65
c140 183 412 424 655 582 342 221 674 376 1435 668 642 246 880 351 1145 503
145 83 333 213 443 307 50 44 93 79 95 80 1 0 -2 -8 -7 -18z m4881 -290 c193
-162 423 -309 698 -447 258 -129 429 -202 1013 -429 830 -323 1204 -514 1549
-788 103 -82 304 -272 238 -226 -19 14 -73 52 -120 85 -144 103 -316 202 -525
304 -236 114 -399 180 -993 403 -511 192 -681 263 -942 392 -431 212 -726 421
-980 692 -55 59 -128 148 -162 197 l-61 90 101 -101 c55 -56 138 -133 184
-172z m929 -84 c275 -206 516 -330 1174 -607 636 -268 953 -446 1234 -695 102
-90 218 -215 156 -168 -311 236 -498 331 -1229 628 -525 214 -747 323 -1016
499 -151 99 -235 166 -359 288 -108 106 -173 182 -233 270 l-42 62 101 -96
c55 -52 151 -134 214 -181z m-4544 108 c-51 -108 -109 -188 -211 -294 -301
-311 -805 -538 -1511 -681 -208 -41 -454 -83 -467 -79 -14 5 181 80 542 208
290 103 575 210 750 281 156 64 443 210 540 275 156 104 292 232 364 341 34
52 31 29 -7 -51z m2160 -171 c59 -80 189 -209 279 -278 268 -203 692 -379
1183 -492 147 -34 490 -98 589 -111 106 -14 26 -24 -188 -24 -390 0 -661 37
-950 131 -347 112 -663 318 -848 552 -100 126 -187 313 -206 442 -5 34 2 25
42 -55 26 -53 70 -127 99 -165z m-6172 -59 c-1101 -544 -1959 -1482 -2406
-2631 -32 -82 -59 -143 -59 -135 0 60 92 394 157 565 351 924 1043 1674 1927
2090 171 80 500 201 556 204 8 0 -70 -41 -175 -93z m10048 16 c519 -251 959
-570 1372 -994 483 -495 845 -1061 1082 -1692 24 -65 42 -120 40 -122 -2 -3
-21 28 -42 68 -322 620 -806 1263 -1361 1808 -371 365 -659 600 -1074 878
-102 68 -187 126 -189 128 -14 14 30 -5 172 -74z m-11650 16 c-3 -29 -8 -55
-10 -58 -3 -3 -23 15 -46 39 l-41 45 44 11 c25 7 48 13 52 14 4 0 4 -23 1 -51z
m6324 -874 c-3 -3 -12 -4 -19 -1 -8 3 -5 6 6 6 11 1 17 -2 13 -5z m-247 -60
c-318 -81 -758 -176 -2035 -444 -1520 -319 -1789 -381 -2235 -517 -564 -171
-1069 -403 -1459 -668 -46 -32 -56 -36 -31 -14 59 53 368 253 515 335 541 301
1224 525 2286 749 308 66 299 63 296 77 -1 6 4 13 11 15 6 3 12 -2 12 -10 0
-12 23 -10 138 14 261 55 850 169 1572 303 399 75 811 153 915 175 263 54 269
49 15 -15z m880 -10 c57 -17 151 -31 290 -45 729 -70 1653 -185 2125 -264 902
-152 1675 -390 2210 -682 235 -128 576 -371 680 -483 17 -18 -10 0 -60 39
-460 368 -1076 643 -1904 851 -745 187 -2067 415 -2746 475 -219 19 -315 31
-420 51 -85 17 -295 81 -295 91 0 3 8 2 18 -2 9 -3 55 -18 102 -31z m-840
-200 c-80 -274 -136 -439 -166 -492 -29 -50 -60 -67 -206 -116 -515 -172
-1043 -94 -1516 223 -68 46 -122 85 -119 87 2 2 143 36 313 75 416 94 862 200
1069 253 94 25 224 54 290 65 160 29 299 66 349 95 23 12 42 22 44 21 1 -1
-25 -96 -58 -211z m1133 96 c62 -11 184 -29 272 -40 420 -54 1123 -177 1435
-250 118 -27 225 -50 238 -50 12 0 22 -4 22 -8 0 -12 -157 -127 -250 -185
-163 -100 -399 -194 -585 -231 -306 -62 -698 -20 -972 104 -71 32 -87 53 -133
171 -26 69 -150 480 -150 500 0 11 -7 12 123 -11z m-8299 -747 c-20 -83 -35
-166 -80 -448 -4 -25 -20 -40 -97 -90 -74 -48 -88 -60 -69 -63 19 -3 73 11
141 36 11 4 12 -10 7 -79 -4 -46 -9 -101 -12 -121 l-6 -37 -436 -227 c-240
-124 -453 -235 -472 -246 -25 -14 -17 -4 30 38 100 88 245 240 266 279 43 80
2 61 -311 -145 -132 -86 -357 -231 -500 -320 -328 -206 -467 -298 -630 -420
-71 -53 -186 -127 -254 -164 -223 -120 -350 -223 -419 -338 -68 -114 -147
-382 -183 -621 -14 -90 -23 -226 -29 -432 -10 -309 -17 -381 -50 -522 -104
-440 -413 -841 -820 -1066 -135 -74 -411 -174 -615 -222 -552 -131 -1167 -28
-1621 271 -149 98 -413 369 -518 531 -80 125 -105 212 -148 518 -17 124 -22
208 -22 370 0 199 2 220 37 415 75 408 119 565 207 742 155 310 447 590 785
753 241 116 472 171 760 182 449 17 857 -94 1310 -354 277 -159 413 -215 572
-233 194 -22 364 29 575 173 124 84 1819 1335 2372 1750 137 103 250 187 251
187 1 0 -8 -44 -21 -97z m2697 -384 c-12 -156 -46 -732 -62 -1034 -17 -342
-23 -1353 -10 -1660 56 -1272 242 -2226 605 -3103 30 -73 53 -132 51 -132 -10
0 -178 303 -254 460 -379 783 -594 1732 -619 2743 -22 840 53 1645 244 2630
26 131 48 236 50 234 3 -2 0 -64 -5 -138z m9868 -304 c54 -897 65 -1245 58
-1919 -5 -540 -11 -676 -43 -1061 -79 -959 -266 -1781 -574 -2528 -29 -70 -54
-126 -56 -124 -2 2 14 70 36 153 260 977 361 1858 445 3884 52 1261 61 1453
92 1935 7 104 7 107 15 55 4 -30 16 -208 27 -395z m3043 273 c267 -195 1897
-1358 2043 -1457 151 -102 283 -170 386 -198 48 -13 98 -18 199 -17 116 1 147
4 223 27 120 37 243 96 432 209 279 167 467 252 690 313 533 146 1067 92 1497
-151 317 -179 601 -487 736 -799 85 -197 116 -350 137 -676 25 -390 41 -507
91 -657 27 -83 83 -197 126 -259 60 -88 186 -192 219 -181 6 2 -12 33 -39 69
-149 197 -213 414 -211 722 l0 152 39 -185 c44 -214 85 -354 135 -470 93 -210
205 -356 368 -479 198 -148 339 -194 752 -246 321 -40 435 -68 565 -136 99
-52 188 -117 169 -123 -27 -9 -246 -26 -492 -37 -358 -16 -590 1 -1132 86
-776 121 -960 102 -1660 -173 -401 -157 -580 -205 -741 -200 -97 3 -94 5 75
37 195 37 371 113 691 299 420 244 673 322 1040 322 189 0 366 -28 591 -95 65
-19 125 -35 134 -35 29 0 14 20 -46 61 -113 77 -300 148 -484 186 -127 25
-490 26 -620 0 -222 -43 -436 -134 -755 -321 -298 -175 -450 -240 -670 -288
-91 -19 -134 -22 -320 -22 -314 -1 -444 26 -655 135 -156 80 -269 163 -400
294 -145 145 -234 267 -320 440 -117 235 -159 406 -175 705 -27 525 -48 671
-131 929 -59 181 -98 256 -173 338 -79 85 -171 150 -341 239 -71 37 -179 105
-240 150 -153 114 -318 219 -700 449 -181 109 -409 249 -505 310 -218 139
-262 165 -283 165 -20 0 -21 -4 -6 -33 30 -57 164 -191 314 -315 27 -22 -73
24 -306 139 l-345 172 -18 236 c-9 130 -23 283 -31 341 -16 115 -17 140 -10
140 3 0 73 -50 157 -112z m-13852 -277 c-22 -67 -26 -151 -8 -169 7 -7 20 -12
30 -12 15 0 18 -8 18 -42 0 -70 39 -392 65 -547 14 -79 24 -145 22 -147 -6 -7
-77 134 -120 241 -74 179 -167 521 -167 610 0 19 18 37 87 85 48 33 89 57 91
52 2 -6 -6 -37 -18 -71z m11606 -23 l96 -81 -6 -56 c-3 -31 -8 -94 -12 -141
-8 -120 -39 -357 -66 -507 -18 -103 -23 -122 -29 -98 -4 17 -23 206 -43 420
-45 513 -48 545 -41 545 3 0 49 -37 101 -82z m-1872 -1403 c60 -504 80 -903
73 -1445 -10 -713 -73 -1316 -212 -2000 -38 -191 -155 -673 -161 -667 -2 2 3
97 11 213 28 399 115 1794 180 2874 66 1121 76 1262 81 1245 2 -5 14 -104 28
-220z m-7733 44 c-89 -716 -106 -1530 -45 -2239 48 -566 152 -1195 283 -1710
27 -107 48 -196 47 -197 -2 -2 -29 52 -61 119 -244 516 -419 1153 -492 1793
-25 225 -26 887 0 1115 37 324 85 597 152 860 39 149 126 432 132 426 3 -2 -5
-78 -16 -167z m5033 -342 c543 -929 905 -1985 1065 -3102 66 -462 85 -741 85
-1255 1 -403 -16 -804 -34 -815 -4 -2 -10 46 -14 108 -48 781 -192 1770 -382
2610 -203 903 -429 1639 -745 2430 -72 180 -74 183 -67 177 3 -3 44 -71 92
-153z m-2266 121 c-99 -153 -292 -512 -401 -743 -486 -1036 -757 -2143 -818
-3343 -17 -332 -2 -1000 26 -1197 11 -77 -5 -27 -40 126 -212 912 -187 1983
65 2914 186 684 489 1335 878 1885 125 177 361 467 290 358z m2042 -1533 c264
-660 435 -1415 504 -2235 31 -357 39 -619 33 -1115 -7 -660 -45 -1188 -137
-1910 -58 -457 -54 -508 -61 780 -7 1280 -20 1774 -59 2385 -49 759 -141 1419
-280 2005 -42 181 -42 181 -37 175 3 -3 20 -41 37 -85z m-1890 1 c-43 -101
-141 -379 -189 -539 -190 -626 -300 -1294 -341 -2072 -13 -245 -13 -910 0
-1180 26 -536 76 -1079 155 -1664 14 -101 25 -186 24 -190 -1 -16 -75 245
-123 439 -120 478 -205 964 -250 1425 -53 547 -46 1166 19 1671 97 748 319
1454 637 2022 80 143 106 176 68 88z m-2201 -306 c-94 -627 -113 -1351 -53
-1995 14 -152 39 -365 49 -430 8 -48 -46 59 -104 205 -259 651 -268 1362 -25
2019 33 89 145 334 149 329 2 -2 -6 -59 -16 -128z m6299 -52 c28 -206 48 -388
64 -598 17 -217 17 -925 0 -1140 -16 -210 -61 -616 -71 -643 -11 -30 -64 311
-95 618 -51 491 -46 1043 14 1545 21 171 53 380 60 380 3 0 16 -73 28 -162z
m13766 -228 c82 -13 115 -42 174 -153 62 -117 82 -195 59 -231 -30 -45 -395
-148 -440 -124 -11 6 -59 46 -105 90 -152 143 -286 213 -497 259 -49 11 -91
21 -92 23 -6 5 290 67 442 91 119 20 300 45 390 54 6 0 36 -3 69 -9z m-17658
-2891 c-34 -312 -41 -462 -41 -904 0 -457 6 -583 46 -955 51 -474 158 -1011
294 -1475 46 -157 170 -526 187 -558 5 -10 7 -21 5 -24 -9 -9 -157 248 -237
412 -184 375 -311 744 -394 1141 -72 346 -97 595 -97 964 0 434 40 767 137
1165 30 121 106 376 111 371 2 -2 -3 -63 -11 -137z m1484 -65 c62 -618 53
-1293 -26 -1924 -73 -589 -222 -1217 -420 -1778 -32 -89 -59 -161 -60 -159 -2
2 17 138 42 303 133 887 308 2358 404 3404 16 179 30 334 30 344 0 11 2 17 5
15 2 -3 14 -95 25 -205z m-2805 -1539 c168 -214 266 -424 316 -673 23 -116 38
-429 24 -518 l-7 -49 -15 29 c-22 42 -153 368 -221 551 -87 235 -240 702 -278
850 -6 26 99 -85 181 -190z m4346 -15 c44 -402 -90 -785 -379 -1076 -77 -78
-160 -149 -167 -142 -2 2 25 73 61 158 132 316 281 733 384 1075 28 94 53 177
57 185 9 22 30 -76 44 -200z"/>
<path d="M17513 32683 c9 -2 23 -2 30 0 6 3 -1 5 -18 5 -16 0 -22 -2 -12 -5z"/>
<path d="M16442 24984 c-28 -20 -28 -26 6 -65 23 -28 24 -32 7 -25 -36 14
-179 44 -265 57 -111 16 -408 16 -535 0 -154 -19 -347 -59 -473 -97 -116 -35
-212 -77 -212 -93 0 -13 38 -21 105 -22 52 0 57 -2 35 -11 -290 -126 -519
-279 -631 -421 -48 -60 -52 -92 -11 -82 15 3 101 40 191 82 367 169 640 245
961 267 l85 6 -76 -25 c-80 -26 -113 -50 -90 -64 6 -4 116 -11 244 -14 451
-13 729 -65 1097 -203 100 -38 171 -71 229 -110 78 -52 506 -357 524 -374 4
-4 -35 1 -87 11 -127 25 -371 56 -530 69 -166 13 -574 13 -707 0 -319 -32
-594 -127 -739 -257 -57 -51 -74 -89 -67 -144 8 -62 55 -105 143 -131 64 -19
74 -25 89 -57 29 -61 100 -153 166 -217 116 -110 239 -181 413 -239 89 -30
237 -67 243 -61 1 1 -62 40 -140 86 -78 47 -167 104 -198 128 -99 73 -198 203
-264 341 -29 62 -29 63 -10 77 35 26 266 94 400 119 142 26 316 45 406 45 l58
0 -35 -52 c-51 -77 -76 -166 -76 -268 -1 -193 101 -352 282 -439 74 -35 77
-36 201 -36 l126 0 85 42 c98 49 178 126 222 215 l27 53 -29 12 c-16 7 -41 26
-56 43 -47 57 -30 156 34 194 16 9 37 16 49 16 19 0 19 2 7 45 -8 24 -25 65
-39 90 l-26 45 28 0 c68 0 761 -124 761 -136 0 -11 -69 -157 -99 -209 -105
-183 -198 -265 -476 -419 -137 -76 -130 -81 49 -36 236 60 385 139 532 285
103 102 157 181 190 280 15 43 18 46 43 40 63 -16 224 -45 251 -45 33 0 40 19
15 40 -23 19 -11 27 57 33 126 12 313 88 306 125 -3 15 -26 18 -178 24 -270
10 -430 49 -675 167 -311 149 -477 283 -842 681 -191 209 -372 386 -468 459
-100 75 -251 147 -360 171 -112 24 -241 26 -273 4z m1087 -1918 c7 -8 11 -30
9 -48 -6 -60 -76 -71 -107 -16 -13 23 -13 29 2 52 13 19 26 26 51 26 18 0 39
-6 45 -14z"/>
<path d="M22425 24544 c-547 -56 -1005 -172 -1290 -329 -33 -18 -105 -47 -160
-65 -366 -121 -802 -356 -962 -521 -24 -23 -43 -52 -43 -62 0 -18 5 -19 58
-15 32 3 159 39 287 81 584 193 916 276 1330 336 387 56 639 67 870 39 77 -10
230 -27 340 -38 231 -24 466 -63 732 -121 202 -43 326 -59 337 -41 3 6 -13 27
-36 47 l-43 37 35 -7 c19 -3 187 -44 374 -91 359 -89 446 -102 446 -64 0 60
-309 246 -615 369 -55 22 -94 41 -86 41 37 0 300 -43 387 -65 100 -24 114 -24
114 -1 0 18 -76 87 -131 119 -100 59 -362 129 -624 166 -110 16 -373 40 -442
41 -6 0 -9 9 -6 20 11 43 -39 71 -187 102 -79 16 -142 20 -370 23 -151 1 -293
1 -315 -1z"/>
<path d="M22200 23869 c-573 -47 -1191 -207 -1636 -425 -116 -57 -161 -84
-190 -117 l-39 -42 33 -3 c28 -3 201 26 268 44 18 5 24 0 34 -33 23 -70 79
-167 138 -235 103 -121 232 -211 399 -278 99 -39 302 -93 332 -88 9 2 -36 32
-99 67 -244 134 -350 223 -449 375 -41 64 -126 244 -119 251 13 13 375 78 766
139 12 2 21 1 19 -3 -74 -137 -97 -240 -78 -353 30 -181 156 -329 329 -387 72
-25 200 -28 277 -7 126 33 246 129 303 242 l31 61 -34 12 c-87 31 -115 137
-54 205 19 22 43 38 65 42 19 3 34 12 34 20 0 27 -37 111 -70 159 l-33 48 122
-6 c138 -8 293 -29 424 -58 110 -24 296 -84 322 -103 20 -14 19 -16 -21 -98
-58 -117 -153 -239 -239 -307 -39 -31 -135 -94 -213 -140 -78 -47 -140 -86
-139 -88 6 -5 203 46 277 73 229 82 425 235 525 412 l40 69 71 21 c142 42 185
149 99 249 -116 135 -423 250 -759 282 -126 13 -582 12 -736 0z m198 -801 c17
-17 15 -73 -3 -88 -21 -17 -64 -16 -82 3 -19 18 -20 61 -3 82 15 18 71 20 88
3z"/>
<path d="M18485 22467 c-194 -197 -290 -273 -489 -385 -231 -131 -392 -192
-506 -192 -49 -1 -53 -2 -36 -15 70 -53 350 -2 583 106 231 106 492 330 582
499 26 49 54 161 40 160 -2 0 -80 -78 -174 -173z"/>
<path d="M20580 22602 c0 -89 110 -251 260 -380 222 -192 469 -313 730 -358
97 -16 154 -14 206 7 27 12 25 13 -46 20 -134 12 -323 90 -544 223 -169 102
-247 165 -433 354 l-173 174 0 -40z"/>
<path d="M19871 22077 c-72 -188 -60 -1407 14 -1420 35 -6 55 197 62 608 6
399 -10 702 -43 818 -7 24 -23 21 -33 -6z"/>
<path d="M6609 13805 c-570 -93 -1009 -436 -1259 -985 -126 -276 -155 -402
-155 -690 0 -177 4 -220 24 -314 74 -350 264 -680 516 -899 368 -318 841 -464
1306 -402 207 27 350 70 532 161 333 165 587 421 752 759 233 473 229 1017
-11 1485 -229 448 -642 764 -1139 870 -130 28 -437 36 -566 15z m533 -148
c350 -83 669 -290 881 -573 476 -634 384 -1521 -211 -2047 -368 -324 -870
-447 -1358 -332 -502 119 -926 511 -1093 1012 -56 169 -75 296 -75 498 0 317
47 478 228 783 82 137 168 238 287 333 231 187 474 297 764 345 54 9 143 12
275 10 165 -4 211 -8 302 -29z"/>
<path d="M31585 13814 c-729 -113 -1293 -690 -1390 -1422 -55 -417 48 -833
295 -1184 84 -119 269 -305 390 -390 496 -351 1158 -405 1693 -137 478 241
796 662 893 1184 25 134 25 418 0 555 -36 196 -117 390 -260 624 -98 160 -144
222 -237 316 -245 249 -590 418 -939 460 -116 14 -336 11 -445 -6z m613 -143
c260 -58 497 -175 704 -348 94 -80 160 -157 251 -293 148 -223 218 -426 236
-690 40 -571 -218 -1102 -684 -1412 -573 -380 -1311 -334 -1837 116 -211 180
-381 449 -462 728 -82 282 -72 630 25 905 96 271 265 513 484 690 181 146 454
271 685 313 146 27 460 22 598 -9z"/>
</g>
</svg>
